# MagicaVoxel @ Ephtracy

# group
g EXPPotion

# material
mtllib EXPPotion.mtl
usemtl palette

# normals
vn -1 0 0
vn 1 0 0
vn 0 0 1
vn 0 0 -1
vn 0 -1 0
vn 0 1 0

# texcoords
vt 0.0214844 0.5
vt 0.154297 0.5
vt 0.306641 0.5
vt 0.373047 0.5
vt 0.923828 0.5
vt 0.962891 0.5

# verts
v -3.5 1 1.5
v -3.5 1 -1.5
v -3.5 3 -0.5
v -3.5 3 -1.5
v -3.5 5 1.5
v -3.5 5 -0.5
v -3.5 5 -1.5
v -2.5 0 1.5
v -2.5 0 0.5
v -2.5 0 -1.5
v -2.5 1 2.5
v -2.5 1 1.5
v -2.5 1 0.5
v -2.5 1 -1.5
v -2.5 1 -2.5
v -2.5 3 -1.5
v -2.5 5 2.5
v -2.5 5 1.5
v -2.5 5 -0.5
v -2.5 5 -1.5
v -2.5 5 -2.5
v -2.5 6 -0.5
v -2.5 6 -1.5
v -2.5 7 1.5
v -2.5 7 -1.5
v -2.5 9 1.5
v -2.5 9 -1.5
v -2.5 10 1.5
v -2.5 10 -1.5
v -1.5 0 2.5
v -1.5 0 1.5
v -1.5 0 -1.5
v -1.5 0 -2.5
v -1.5 1 3.5
v -1.5 1 2.5
v -1.5 1 1.5
v -1.5 1 -1.5
v -1.5 1 -2.5
v -1.5 1 -3.5
v -1.5 2 3.5
v -1.5 2 2.5
v -1.5 3 -2.5
v -1.5 3 -3.5
v -1.5 4 3.5
v -1.5 4 2.5
v -1.5 5 3.5
v -1.5 5 2.5
v -1.5 5 1.5
v -1.5 5 -1.5
v -1.5 5 -2.5
v -1.5 5 -3.5
v -1.5 6 -1.5
v -1.5 7 2.5
v -1.5 7 1.5
v -1.5 7 -1.5
v -1.5 7 -2.5
v -1.5 9 2.5
v -1.5 9 1.5
v -1.5 9 -1.5
v -1.5 9 -2.5
v -1.5 10 2.5
v -1.5 10 1.5
v -1.5 10 0.5
v -1.5 10 -0.5
v -1.5 10 -1.5
v -1.5 10 -2.5
v -1.5 11 0.5
v -1.5 11 -0.5
v -0.5 10 1.5
v -0.5 10 0.5
v -0.5 10 -0.5
v -0.5 10 -1.5
v -0.5 11 1.5
v -0.5 11 0.5
v -0.5 11 -0.5
v -0.5 11 -1.5
v 0.5 10 1.5
v 0.5 10 0.5
v 0.5 10 -0.5
v 0.5 10 -1.5
v 0.5 11 1.5
v 0.5 11 0.5
v 0.5 11 -0.5
v 0.5 11 -1.5
v 1.5 0 2.5
v 1.5 0 1.5
v 1.5 0 -1.5
v 1.5 0 -2.5
v 1.5 1 3.5
v 1.5 1 2.5
v 1.5 1 1.5
v 1.5 1 -1.5
v 1.5 1 -2.5
v 1.5 1 -3.5
v 1.5 2 -2.5
v 1.5 5 3.5
v 1.5 5 2.5
v 1.5 5 1.5
v 1.5 5 -1.5
v 1.5 5 -2.5
v 1.5 5 -3.5
v 1.5 6 1.5
v 1.5 6 -1.5
v 1.5 6 -2.5
v 1.5 7 2.5
v 1.5 7 1.5
v 1.5 7 -1.5
v 1.5 7 -2.5
v 1.5 8 1.5
v 1.5 8 0.5
v 1.5 9 2.5
v 1.5 9 1.5
v 1.5 9 0.5
v 1.5 9 -1.5
v 1.5 9 -2.5
v 1.5 10 2.5
v 1.5 10 1.5
v 1.5 10 0.5
v 1.5 10 -0.5
v 1.5 10 -1.5
v 1.5 10 -2.5
v 1.5 11 0.5
v 1.5 11 -0.5
v 2.5 0 1.5
v 2.5 0 -0.5
v 2.5 0 -1.5
v 2.5 1 2.5
v 2.5 1 1.5
v 2.5 1 -0.5
v 2.5 1 -1.5
v 2.5 1 -2.5
v 2.5 2 -1.5
v 2.5 2 -2.5
v 2.5 3 -1.5
v 2.5 5 2.5
v 2.5 5 1.5
v 2.5 5 -0.5
v 2.5 5 -1.5
v 2.5 5 -2.5
v 2.5 6 1.5
v 2.5 6 -0.5
v 2.5 7 1.5
v 2.5 7 -1.5
v 2.5 9 1.5
v 2.5 9 -1.5
v 2.5 10 1.5
v 2.5 10 -1.5
v 3.5 1 1.5
v 3.5 1 -0.5
v 3.5 1 -1.5
v 3.5 3 -0.5
v 3.5 3 -1.5
v 3.5 5 1.5
v 3.5 5 -1.5
v -1.5 1 3.5
v -1.5 2 3.5
v -1.5 4 3.5
v -1.5 5 3.5
v -0.5 1 3.5
v -0.5 2 3.5
v -0.5 3 3.5
v -0.5 4 3.5
v 0.5 1 3.5
v 0.5 3 3.5
v 1.5 1 3.5
v 1.5 5 3.5
v -2.5 1 2.5
v -2.5 5 2.5
v -1.5 0 2.5
v -1.5 1 2.5
v -1.5 2 2.5
v -1.5 4 2.5
v -1.5 5 2.5
v -1.5 7 2.5
v -1.5 9 2.5
v -1.5 10 2.5
v -0.5 0 2.5
v -0.5 1 2.5
v 0.5 0 2.5
v 0.5 1 2.5
v 1.5 0 2.5
v 1.5 1 2.5
v 1.5 5 2.5
v 1.5 7 2.5
v 1.5 9 2.5
v 1.5 10 2.5
v 2.5 1 2.5
v 2.5 5 2.5
v -3.5 1 1.5
v -3.5 5 1.5
v -2.5 0 1.5
v -2.5 1 1.5
v -2.5 5 1.5
v -2.5 7 1.5
v -2.5 9 1.5
v -2.5 10 1.5
v -1.5 0 1.5
v -1.5 1 1.5
v -1.5 5 1.5
v -1.5 7 1.5
v -1.5 9 1.5
v -1.5 10 1.5
v -0.5 10 1.5
v -0.5 11 1.5
v 0.5 8 1.5
v 0.5 9 1.5
v 0.5 10 1.5
v 0.5 11 1.5
v 1.5 0 1.5
v 1.5 1 1.5
v 1.5 5 1.5
v 1.5 6 1.5
v 1.5 7 1.5
v 1.5 8 1.5
v 1.5 9 1.5
v 1.5 10 1.5
v 2.5 0 1.5
v 2.5 1 1.5
v 2.5 5 1.5
v 2.5 6 1.5
v 2.5 7 1.5
v 2.5 9 1.5
v 2.5 10 1.5
v 3.5 1 1.5
v 3.5 5 1.5
v -1.5 10 0.5
v -1.5 11 0.5
v -0.5 10 0.5
v -0.5 11 0.5
v 0.5 10 0.5
v 0.5 11 0.5
v 1.5 10 0.5
v 1.5 11 0.5
v -1.5 10 -0.5
v -1.5 11 -0.5
v -0.5 10 -0.5
v -0.5 11 -0.5
v 0.5 10 -0.5
v 0.5 11 -0.5
v 1.5 10 -0.5
v 1.5 11 -0.5
v -3.5 1 -1.5
v -3.5 3 -1.5
v -3.5 5 -1.5
v -2.5 0 -1.5
v -2.5 1 -1.5
v -2.5 3 -1.5
v -2.5 5 -1.5
v -2.5 6 -1.5
v -2.5 7 -1.5
v -2.5 9 -1.5
v -2.5 10 -1.5
v -1.5 0 -1.5
v -1.5 1 -1.5
v -1.5 5 -1.5
v -1.5 6 -1.5
v -1.5 7 -1.5
v -1.5 9 -1.5
v -1.5 10 -1.5
v -0.5 7 -1.5
v -0.5 9 -1.5
v -0.5 10 -1.5
v -0.5 11 -1.5
v 0.5 7 -1.5
v 0.5 9 -1.5
v 0.5 10 -1.5
v 0.5 11 -1.5
v 1.5 0 -1.5
v 1.5 1 -1.5
v 1.5 5 -1.5
v 1.5 6 -1.5
v 1.5 7 -1.5
v 1.5 9 -1.5
v 1.5 10 -1.5
v 2.5 0 -1.5
v 2.5 1 -1.5
v 2.5 2 -1.5
v 2.5 3 -1.5
v 2.5 5 -1.5
v 2.5 7 -1.5
v 2.5 9 -1.5
v 2.5 10 -1.5
v 3.5 1 -1.5
v 3.5 3 -1.5
v 3.5 5 -1.5
v -2.5 1 -2.5
v -2.5 5 -2.5
v -1.5 0 -2.5
v -1.5 1 -2.5
v -1.5 3 -2.5
v -1.5 5 -2.5
v -1.5 7 -2.5
v -1.5 9 -2.5
v -1.5 10 -2.5
v -0.5 0 -2.5
v -0.5 1 -2.5
v -0.5 5 -2.5
v -0.5 6 -2.5
v 0.5 0 -2.5
v 0.5 1 -2.5
v 0.5 5 -2.5
v 1.5 0 -2.5
v 1.5 1 -2.5
v 1.5 2 -2.5
v 1.5 5 -2.5
v 1.5 6 -2.5
v 1.5 7 -2.5
v 1.5 9 -2.5
v 1.5 10 -2.5
v 2.5 1 -2.5
v 2.5 2 -2.5
v 2.5 5 -2.5
v -1.5 1 -3.5
v -1.5 3 -3.5
v -1.5 5 -3.5
v -0.5 3 -3.5
v -0.5 4 -3.5
v 0.5 4 -3.5
v 0.5 5 -3.5
v 1.5 1 -3.5
v 1.5 5 -3.5
v -1.5 0 2.5
v -0.5 0 2.5
v 0.5 0 2.5
v 1.5 0 2.5
v -2.5 0 1.5
v -1.5 0 1.5
v -0.5 0 1.5
v 0.5 0 1.5
v 1.5 0 1.5
v 2.5 0 1.5
v -2.5 0 0.5
v -1.5 0 0.5
v -1.5 0 -0.5
v 0.5 0 -0.5
v 1.5 0 -0.5
v 2.5 0 -0.5
v -2.5 0 -1.5
v -1.5 0 -1.5
v -0.5 0 -1.5
v 1.5 0 -1.5
v 2.5 0 -1.5
v -1.5 0 -2.5
v -0.5 0 -2.5
v 0.5 0 -2.5
v 1.5 0 -2.5
v -1.5 1 3.5
v -0.5 1 3.5
v 0.5 1 3.5
v 1.5 1 3.5
v -2.5 1 2.5
v -1.5 1 2.5
v -0.5 1 2.5
v 0.5 1 2.5
v 1.5 1 2.5
v 2.5 1 2.5
v -3.5 1 1.5
v -2.5 1 1.5
v -1.5 1 1.5
v 1.5 1 1.5
v 2.5 1 1.5
v 3.5 1 1.5
v -2.5 1 0.5
v 2.5 1 -0.5
v 3.5 1 -0.5
v -3.5 1 -1.5
v -2.5 1 -1.5
v -1.5 1 -1.5
v 1.5 1 -1.5
v 2.5 1 -1.5
v 3.5 1 -1.5
v -2.5 1 -2.5
v -1.5 1 -2.5
v -0.5 1 -2.5
v 0.5 1 -2.5
v 1.5 1 -2.5
v 2.5 1 -2.5
v -1.5 1 -3.5
v 1.5 1 -3.5
v -1.5 9 2.5
v 1.5 9 2.5
v -2.5 9 1.5
v -1.5 9 1.5
v 0.5 9 1.5
v 1.5 9 1.5
v 2.5 9 1.5
v 1.5 9 0.5
v -2.5 9 -1.5
v -1.5 9 -1.5
v -0.5 9 -1.5
v 0.5 9 -1.5
v 1.5 9 -1.5
v 2.5 9 -1.5
v -1.5 9 -2.5
v 1.5 9 -2.5
v -1.5 5 3.5
v 1.5 5 3.5
v -2.5 5 2.5
v -1.5 5 2.5
v 1.5 5 2.5
v 2.5 5 2.5
v -3.5 5 1.5
v -2.5 5 1.5
v -1.5 5 1.5
v 1.5 5 1.5
v 2.5 5 1.5
v 3.5 5 1.5
v -3.5 5 -0.5
v -2.5 5 -0.5
v 2.5 5 -0.5
v -3.5 5 -1.5
v -2.5 5 -1.5
v -1.5 5 -1.5
v 1.5 5 -1.5
v 2.5 5 -1.5
v 3.5 5 -1.5
v -2.5 5 -2.5
v -1.5 5 -2.5
v -0.5 5 -2.5
v 0.5 5 -2.5
v 1.5 5 -2.5
v 2.5 5 -2.5
v -1.5 5 -3.5
v 0.5 5 -3.5
v 1.5 5 -3.5
v -1.5 7 2.5
v 1.5 7 2.5
v -2.5 7 1.5
v -1.5 7 1.5
v 1.5 7 1.5
v 2.5 7 1.5
v -2.5 7 -1.5
v -1.5 7 -1.5
v -0.5 7 -1.5
v 0.5 7 -1.5
v 1.5 7 -1.5
v 2.5 7 -1.5
v -1.5 7 -2.5
v 1.5 7 -2.5
v -1.5 10 2.5
v 1.5 10 2.5
v -2.5 10 1.5
v -1.5 10 1.5
v -0.5 10 1.5
v 0.5 10 1.5
v 1.5 10 1.5
v 2.5 10 1.5
v -1.5 10 0.5
v -0.5 10 0.5
v 0.5 10 0.5
v 1.5 10 0.5
v -1.5 10 -0.5
v -0.5 10 -0.5
v 0.5 10 -0.5
v 1.5 10 -0.5
v -2.5 10 -1.5
v -1.5 10 -1.5
v -0.5 10 -1.5
v 0.5 10 -1.5
v 1.5 10 -1.5
v 2.5 10 -1.5
v -1.5 10 -2.5
v 1.5 10 -2.5
v -0.5 11 1.5
v 0.5 11 1.5
v -1.5 11 0.5
v -0.5 11 0.5
v 0.5 11 0.5
v 1.5 11 0.5
v -1.5 11 -0.5
v -0.5 11 -0.5
v 0.5 11 -0.5
v 1.5 11 -0.5
v -0.5 11 -1.5
v 0.5 11 -1.5

# faces
f 3/1/1 2/1/1 1/1/1
f 4/1/1 2/1/1 3/1/1
f 5/1/1 3/1/1 1/1/1
f 6/2/1 4/2/1 3/2/1
f 6/1/1 3/1/1 5/1/1
f 7/2/1 4/2/1 6/2/1
f 12/1/1 9/1/1 8/1/1
f 13/2/1 10/2/1 9/2/1
f 13/1/1 9/1/1 12/1/1
f 14/2/1 10/2/1 13/2/1
f 16/1/1 15/1/1 14/1/1
f 17/1/1 12/1/1 11/1/1
f 18/1/1 12/1/1 17/1/1
f 20/1/1 15/1/1 16/1/1
f 21/1/1 15/1/1 20/1/1
f 22/1/1 19/1/1 18/1/1
f 22/2/1 20/2/1 19/2/1
f 23/2/1 20/2/1 22/2/1
f 24/1/1 22/1/1 18/1/1
f 24/1/1 23/1/1 22/1/1
f 25/1/1 23/1/1 24/1/1
f 28/6/1 27/6/1 26/6/1
f 29/6/1 27/6/1 28/6/1
f 35/1/1 31/1/1 30/1/1
f 36/1/1 31/1/1 35/1/1
f 37/1/1 33/1/1 32/1/1
f 38/1/1 33/1/1 37/1/1
f 40/1/1 35/1/1 34/1/1
f 41/1/1 35/1/1 40/1/1
f 42/1/1 39/1/1 38/1/1
f 43/1/1 39/1/1 42/1/1
f 44/2/1 41/2/1 40/2/1
f 45/2/1 41/2/1 44/2/1
f 46/1/1 45/1/1 44/1/1
f 47/1/1 45/1/1 46/1/1
f 50/2/1 43/2/1 42/2/1
f 51/2/1 43/2/1 50/2/1
f 52/1/1 50/1/1 49/1/1
f 53/1/1 48/1/1 47/1/1
f 54/1/1 48/1/1 53/1/1
f 55/1/1 50/1/1 52/1/1
f 56/1/1 50/1/1 55/1/1
f 58/1/1 55/1/1 54/1/1
f 59/1/1 55/1/1 58/1/1
f 61/6/1 58/6/1 57/6/1
f 62/6/1 58/6/1 61/6/1
f 65/6/1 60/6/1 59/6/1
f 66/6/1 60/6/1 65/6/1
f 67/4/1 64/4/1 63/4/1
f 68/4/1 64/4/1 67/4/1
f 73/4/1 70/4/1 69/4/1
f 74/4/1 70/4/1 73/4/1
f 75/4/1 72/4/1 71/4/1
f 76/4/1 72/4/1 75/4/1
f 77/4/2 78/4/2 81/4/2
f 81/4/2 78/4/2 82/4/2
f 79/4/2 80/4/2 83/4/2
f 83/4/2 80/4/2 84/4/2
f 85/1/2 86/1/2 90/1/2
f 90/1/2 86/1/2 91/1/2
f 87/1/2 88/1/2 92/1/2
f 92/1/2 88/1/2 93/1/2
f 93/1/2 94/1/2 95/1/2
f 89/1/2 90/1/2 96/1/2
f 96/1/2 90/1/2 97/1/2
f 95/1/2 94/1/2 100/1/2
f 100/1/2 94/1/2 101/1/2
f 97/1/2 98/1/2 102/1/2
f 99/2/2 100/2/2 103/2/2
f 103/2/2 100/2/2 104/2/2
f 97/1/2 102/1/2 105/1/2
f 105/1/2 102/1/2 106/1/2
f 103/1/2 104/1/2 107/1/2
f 107/1/2 104/1/2 108/1/2
f 106/1/2 107/1/2 109/1/2
f 109/1/2 107/1/2 110/1/2
f 109/2/2 110/2/2 112/2/2
f 110/1/2 107/1/2 113/1/2
f 112/2/2 110/2/2 113/2/2
f 113/1/2 107/1/2 114/1/2
f 111/6/2 112/6/2 116/6/2
f 116/6/2 112/6/2 117/6/2
f 114/6/2 115/6/2 120/6/2
f 120/6/2 115/6/2 121/6/2
f 118/4/2 119/4/2 122/4/2
f 122/4/2 119/4/2 123/4/2
f 124/1/2 125/1/2 128/1/2
f 125/2/2 126/2/2 129/2/2
f 128/1/2 125/1/2 129/1/2
f 129/2/2 126/2/2 130/2/2
f 130/2/2 131/2/2 132/2/2
f 132/2/2 131/2/2 133/2/2
f 132/1/2 133/1/2 134/1/2
f 127/1/2 128/1/2 135/1/2
f 135/1/2 128/1/2 136/1/2
f 134/1/2 133/1/2 138/1/2
f 138/1/2 133/1/2 139/1/2
f 136/1/2 137/1/2 140/1/2
f 137/2/2 138/2/2 141/2/2
f 140/1/2 137/1/2 141/1/2
f 140/2/2 141/2/2 142/2/2
f 141/2/2 138/2/2 143/2/2
f 142/2/2 141/2/2 143/2/2
f 144/6/2 145/6/2 146/6/2
f 146/6/2 145/6/2 147/6/2
f 148/1/2 149/1/2 151/1/2
f 149/2/2 150/2/2 151/2/2
f 151/2/2 150/2/2 152/2/2
f 148/1/2 151/1/2 153/1/2
f 151/1/2 152/1/2 153/1/2
f 153/1/2 152/1/2 154/1/2
f 159/1/3 156/1/3 155/1/3
f 160/2/3 157/2/3 156/2/3
f 160/1/3 156/1/3 159/1/3
f 161/2/3 157/2/3 160/2/3
f 162/1/3 158/1/3 157/1/3
f 162/2/3 157/2/3 161/2/3
f 163/2/3 161/2/3 160/2/3
f 163/2/3 160/2/3 159/2/3
f 164/1/3 162/1/3 161/1/3
f 164/2/3 161/2/3 163/2/3
f 165/1/3 164/1/3 163/1/3
f 166/1/3 158/1/3 162/1/3
f 166/1/3 164/1/3 165/1/3
f 166/1/3 162/1/3 164/1/3
f 170/1/3 168/1/3 167/1/3
f 171/1/3 168/1/3 170/1/3
f 172/1/3 168/1/3 171/1/3
f 173/1/3 168/1/3 172/1/3
f 177/1/3 170/1/3 169/1/3
f 178/1/3 170/1/3 177/1/3
f 179/2/3 178/2/3 177/2/3
f 180/2/3 178/2/3 179/2/3
f 181/1/3 180/1/3 179/1/3
f 182/1/3 180/1/3 181/1/3
f 183/1/3 174/1/3 173/1/3
f 184/1/3 174/1/3 183/1/3
f 185/6/3 176/6/3 175/6/3
f 186/6/3 176/6/3 185/6/3
f 187/1/3 183/1/3 182/1/3
f 188/1/3 183/1/3 187/1/3
f 192/1/3 190/1/3 189/1/3
f 193/1/3 190/1/3 192/1/3
f 197/1/3 192/1/3 191/1/3
f 198/1/3 192/1/3 197/1/3
f 199/1/3 194/1/3 193/1/3
f 200/1/3 194/1/3 199/1/3
f 201/6/3 196/6/3 195/6/3
f 202/6/3 196/6/3 201/6/3
f 205/1/3 201/1/3 200/1/3
f 206/1/3 201/1/3 205/1/3
f 207/4/3 204/4/3 203/4/3
f 208/4/3 204/4/3 207/4/3
f 213/1/3 205/1/3 200/1/3
f 214/2/3 206/2/3 205/2/3
f 214/1/3 205/1/3 213/1/3
f 215/2/3 206/2/3 214/2/3
f 217/1/3 210/1/3 209/1/3
f 218/1/3 210/1/3 217/1/3
f 219/1/3 212/1/3 211/1/3
f 220/2/3 213/2/3 212/2/3
f 220/1/3 212/1/3 219/1/3
f 221/2/3 213/2/3 220/2/3
f 222/6/3 216/6/3 215/6/3
f 223/6/3 216/6/3 222/6/3
f 224/1/3 219/1/3 218/1/3
f 225/1/3 219/1/3 224/1/3
f 228/4/3 227/4/3 226/4/3
f 229/4/3 227/4/3 228/4/3
f 232/4/3 231/4/3 230/4/3
f 233/4/3 231/4/3 232/4/3
f 234/4/4 235/4/4 236/4/4
f 236/4/4 235/4/4 237/4/4
f 238/4/4 239/4/4 240/4/4
f 240/4/4 239/4/4 241/4/4
f 242/1/4 243/1/4 246/1/4
f 243/2/4 244/2/4 247/2/4
f 246/1/4 243/1/4 247/1/4
f 247/2/4 244/2/4 248/2/4
f 245/2/4 246/2/4 253/2/4
f 253/2/4 246/2/4 254/2/4
f 248/2/4 249/2/4 255/2/4
f 249/1/4 250/1/4 256/1/4
f 255/2/4 249/2/4 256/2/4
f 256/1/4 250/1/4 257/1/4
f 251/6/4 252/6/4 258/6/4
f 258/6/4 252/6/4 259/6/4
f 257/1/4 258/1/4 260/1/4
f 260/1/4 258/1/4 261/1/4
f 260/2/4 261/2/4 264/2/4
f 264/2/4 261/2/4 265/2/4
f 262/4/4 263/4/4 266/4/4
f 266/4/4 263/4/4 267/4/4
f 264/1/4 265/1/4 272/1/4
f 272/1/4 265/1/4 273/1/4
f 268/2/4 269/2/4 275/2/4
f 275/2/4 269/2/4 276/2/4
f 270/2/4 271/2/4 279/2/4
f 271/2/4 272/2/4 279/2/4
f 279/2/4 272/2/4 280/2/4
f 273/6/4 274/6/4 281/6/4
f 281/6/4 274/6/4 282/6/4
f 277/2/4 278/2/4 283/2/4
f 276/2/4 277/2/4 283/2/4
f 278/1/4 279/1/4 284/1/4
f 283/2/4 278/2/4 284/2/4
f 284/1/4 279/1/4 285/1/4
f 286/1/4 287/1/4 289/1/4
f 289/1/4 287/1/4 290/1/4
f 290/1/4 287/1/4 291/1/4
f 288/1/4 289/1/4 295/1/4
f 295/1/4 289/1/4 296/1/4
f 291/1/4 292/1/4 297/1/4
f 297/1/4 292/1/4 298/1/4
f 295/2/4 296/2/4 299/2/4
f 299/2/4 296/2/4 300/2/4
f 297/2/4 298/2/4 301/2/4
f 299/1/4 300/1/4 302/1/4
f 302/1/4 300/1/4 303/1/4
f 301/2/4 298/2/4 305/2/4
f 298/1/4 292/1/4 306/1/4
f 305/2/4 298/2/4 306/2/4
f 306/1/4 292/1/4 307/1/4
f 293/6/4 294/6/4 308/6/4
f 308/6/4 294/6/4 309/6/4
f 303/2/4 304/2/4 310/2/4
f 304/1/4 305/1/4 311/1/4
f 310/2/4 304/2/4 311/2/4
f 311/1/4 305/1/4 312/1/4
f 313/1/4 314/1/4 316/1/4
f 314/2/4 315/2/4 316/2/4
f 316/2/4 315/2/4 317/2/4
f 316/1/4 317/1/4 318/1/4
f 317/2/4 315/2/4 318/2/4
f 318/2/4 315/2/4 319/2/4
f 313/1/4 316/1/4 320/1/4
f 316/1/4 318/1/4 320/1/4
f 318/1/4 319/1/4 320/1/4
f 320/1/4 319/1/4 321/1/4
f 327/1/5 323/1/5 322/1/5
f 328/2/5 324/2/5 323/2/5
f 328/1/5 323/1/5 327/1/5
f 329/1/5 325/1/5 324/1/5
f 329/2/5 324/2/5 328/2/5
f 330/1/5 325/1/5 329/1/5
f 332/1/5 328/1/5 327/1/5
f 332/1/5 331/1/5 330/1/5
f 332/1/5 330/1/5 329/1/5
f 332/1/5 329/1/5 328/1/5
f 332/1/5 327/1/5 326/1/5
f 333/1/5 331/1/5 332/1/5
f 334/2/5 333/2/5 332/2/5
f 334/1/5 331/1/5 333/1/5
f 335/1/5 331/1/5 334/1/5
f 336/1/5 331/1/5 335/1/5
f 337/1/5 331/1/5 336/1/5
f 338/2/5 334/2/5 332/2/5
f 338/2/5 335/2/5 334/2/5
f 339/2/5 335/2/5 338/2/5
f 340/2/5 335/2/5 339/2/5
f 341/2/5 337/2/5 336/2/5
f 341/1/5 336/1/5 335/1/5
f 342/2/5 337/2/5 341/2/5
f 343/1/5 340/1/5 339/1/5
f 344/2/5 335/2/5 340/2/5
f 344/1/5 340/1/5 343/1/5
f 345/1/5 341/1/5 335/1/5
f 345/2/5 335/2/5 344/2/5
f 346/1/5 341/1/5 345/1/5
f 352/1/5 348/1/5 347/1/5
f 353/2/5 349/2/5 348/2/5
f 353/1/5 348/1/5 352/1/5
f 354/1/5 350/1/5 349/1/5
f 354/2/5 349/2/5 353/2/5
f 355/1/5 350/1/5 354/1/5
f 358/1/5 352/1/5 351/1/5
f 359/1/5 352/1/5 358/1/5
f 360/1/5 356/1/5 355/1/5
f 361/1/5 356/1/5 360/1/5
f 363/1/5 358/1/5 357/1/5
f 364/1/5 362/1/5 361/1/5
f 365/1/5 362/1/5 364/1/5
f 366/1/5 363/1/5 357/1/5
f 367/1/5 363/1/5 366/1/5
f 370/2/5 365/2/5 364/2/5
f 371/2/5 365/2/5 370/2/5
f 372/1/5 368/1/5 367/1/5
f 373/1/5 368/1/5 372/1/5
f 376/2/5 370/2/5 369/2/5
f 377/2/5 370/2/5 376/2/5
f 378/1/5 375/1/5 374/1/5
f 378/1/5 376/1/5 375/1/5
f 378/1/5 374/1/5 373/1/5
f 379/1/5 376/1/5 378/1/5
f 383/6/5 381/6/5 380/6/5
f 384/6/5 381/6/5 383/6/5
f 385/6/5 381/6/5 384/6/5
f 387/6/5 386/6/5 385/6/5
f 388/6/5 383/6/5 382/6/5
f 389/6/5 383/6/5 388/6/5
f 392/6/5 386/6/5 387/6/5
f 393/6/5 386/6/5 392/6/5
f 394/6/5 391/6/5 390/6/5
f 394/6/5 392/6/5 391/6/5
f 394/6/5 390/6/5 389/6/5
f 395/6/5 392/6/5 394/6/5
f 396/1/6 397/1/6 399/1/6
f 399/1/6 397/1/6 400/1/6
f 398/1/6 399/1/6 403/1/6
f 403/1/6 399/1/6 404/1/6
f 400/1/6 401/1/6 405/1/6
f 405/1/6 401/1/6 406/1/6
f 402/1/6 403/1/6 408/1/6
f 408/1/6 403/1/6 409/1/6
f 406/1/6 407/1/6 410/1/6
f 408/2/6 409/2/6 411/2/6
f 411/2/6 409/2/6 412/2/6
f 410/1/6 407/1/6 415/1/6
f 415/1/6 407/1/6 416/1/6
f 412/1/6 413/1/6 417/1/6
f 417/1/6 413/1/6 418/1/6
f 414/1/6 415/1/6 421/1/6
f 421/1/6 415/1/6 422/1/6
f 419/2/6 420/2/6 423/2/6
f 418/2/6 419/2/6 423/2/6
f 420/1/6 421/1/6 424/1/6
f 423/2/6 420/2/6 424/2/6
f 424/1/6 421/1/6 425/1/6
f 426/1/6 427/1/6 429/1/6
f 429/1/6 427/1/6 430/1/6
f 428/1/6 429/1/6 432/1/6
f 432/1/6 429/1/6 433/1/6
f 430/2/6 431/2/6 436/2/6
f 436/2/6 431/2/6 437/2/6
f 434/1/6 435/1/6 438/1/6
f 435/1/6 436/1/6 438/1/6
f 433/1/6 434/1/6 438/1/6
f 438/1/6 436/1/6 439/1/6
f 440/6/6 441/6/6 443/6/6
f 443/6/6 441/6/6 444/6/6
f 444/6/6 441/6/6 445/6/6
f 445/6/6 441/6/6 446/6/6
f 442/6/6 443/6/6 448/6/6
f 443/4/6 444/4/6 448/4/6
f 448/4/6 444/4/6 449/4/6
f 445/4/6 446/4/6 450/4/6
f 446/6/6 447/6/6 451/6/6
f 450/4/6 446/4/6 451/4/6
f 442/6/6 448/6/6 452/6/6
f 451/6/6 447/6/6 455/6/6
f 442/6/6 452/6/6 456/6/6
f 452/4/6 453/4/6 457/4/6
f 456/6/6 452/6/6 457/6/6
f 457/4/6 453/4/6 458/4/6
f 454/4/6 455/4/6 459/4/6
f 455/6/6 447/6/6 460/6/6
f 459/4/6 455/4/6 460/4/6
f 460/6/6 447/6/6 461/6/6
f 457/6/6 458/6/6 462/6/6
f 458/6/6 459/6/6 462/6/6
f 459/6/6 460/6/6 462/6/6
f 462/6/6 460/6/6 463/6/6
f 464/4/6 465/4/6 467/4/6
f 467/4/6 465/4/6 468/4/6
f 466/4/6 467/4/6 470/4/6
f 468/4/6 469/4/6 470/4/6
f 467/4/6 468/4/6 470/4/6
f 470/4/6 469/4/6 471/4/6
f 471/4/6 469/4/6 472/4/6
f 472/4/6 469/4/6 473/4/6
f 471/4/6 472/4/6 474/4/6
f 474/4/6 472/4/6 475/4/6
