# MagicaVoxel @ Ephtracy

# group
g HealPotion

# material
mtllib HealPotion.mtl
usemtl palette

# normals
vn -1 0 0
vn 1 0 0
vn 0 0 1
vn 0 0 -1
vn 0 -1 0
vn 0 1 0

# texcoords
vt 0.138672 0.5
vt 0.306641 0.5
vt 0.373047 0.5
vt 0.841797 0.5
vt 0.845703 0.5
vt 0.962891 0.5

# verts
v -3.5 1 1.5
v -3.5 1 -1.5
v -3.5 3 1.5
v -3.5 3 0.5
v -3.5 4 1.5
v -3.5 4 0.5
v -3.5 4 -0.5
v -3.5 5 1.5
v -3.5 5 0.5
v -3.5 5 -0.5
v -3.5 5 -1.5
v -2.5 0 1.5
v -2.5 0 -1.5
v -2.5 1 2.5
v -2.5 1 1.5
v -2.5 1 -1.5
v -2.5 1 -2.5
v -2.5 3 1.5
v -2.5 4 1.5
v -2.5 4 -1.5
v -2.5 4 -2.5
v -2.5 5 2.5
v -2.5 5 1.5
v -2.5 5 0.5
v -2.5 5 -0.5
v -2.5 5 -1.5
v -2.5 5 -2.5
v -2.5 6 0.5
v -2.5 6 -0.5
v -2.5 7 1.5
v -2.5 7 -1.5
v -2.5 9 1.5
v -2.5 9 -1.5
v -2.5 10 1.5
v -2.5 10 -1.5
v -1.5 0 2.5
v -1.5 0 1.5
v -1.5 0 -1.5
v -1.5 0 -2.5
v -1.5 1 3.5
v -1.5 1 2.5
v -1.5 1 1.5
v -1.5 1 -1.5
v -1.5 1 -2.5
v -1.5 1 -3.5
v -1.5 4 -2.5
v -1.5 4 -3.5
v -1.5 5 3.5
v -1.5 5 2.5
v -1.5 5 1.5
v -1.5 5 -1.5
v -1.5 5 -2.5
v -1.5 5 -3.5
v -1.5 7 2.5
v -1.5 7 1.5
v -1.5 7 0.5
v -1.5 7 -0.5
v -1.5 7 -1.5
v -1.5 7 -2.5
v -1.5 8 1.5
v -1.5 8 0.5
v -1.5 8 -0.5
v -1.5 8 -1.5
v -1.5 9 2.5
v -1.5 9 1.5
v -1.5 9 0.5
v -1.5 9 -0.5
v -1.5 9 -1.5
v -1.5 9 -2.5
v -1.5 10 2.5
v -1.5 10 1.5
v -1.5 10 0.5
v -1.5 10 -0.5
v -1.5 10 -1.5
v -1.5 10 -2.5
v -1.5 11 0.5
v -1.5 11 -0.5
v -0.5 10 1.5
v -0.5 10 0.5
v -0.5 10 -0.5
v -0.5 10 -1.5
v -0.5 11 1.5
v -0.5 11 0.5
v -0.5 11 -0.5
v -0.5 11 -1.5
v 0.5 10 1.5
v 0.5 10 0.5
v 0.5 10 -0.5
v 0.5 10 -1.5
v 0.5 11 1.5
v 0.5 11 0.5
v 0.5 11 -0.5
v 0.5 11 -1.5
v 1.5 0 2.5
v 1.5 0 1.5
v 1.5 0 -1.5
v 1.5 0 -2.5
v 1.5 1 3.5
v 1.5 1 2.5
v 1.5 1 1.5
v 1.5 1 -1.5
v 1.5 1 -2.5
v 1.5 1 -3.5
v 1.5 4 -2.5
v 1.5 5 3.5
v 1.5 5 2.5
v 1.5 5 1.5
v 1.5 5 -1.5
v 1.5 5 -2.5
v 1.5 5 -3.5
v 1.5 6 -1.5
v 1.5 6 -2.5
v 1.5 7 2.5
v 1.5 7 1.5
v 1.5 7 0.5
v 1.5 7 -0.5
v 1.5 7 -1.5
v 1.5 7 -2.5
v 1.5 8 1.5
v 1.5 8 0.5
v 1.5 8 -0.5
v 1.5 9 2.5
v 1.5 9 1.5
v 1.5 9 0.5
v 1.5 9 -1.5
v 1.5 9 -2.5
v 1.5 10 2.5
v 1.5 10 1.5
v 1.5 10 0.5
v 1.5 10 -0.5
v 1.5 10 -1.5
v 1.5 10 -2.5
v 1.5 11 0.5
v 1.5 11 -0.5
v 2.5 0 1.5
v 2.5 0 -1.5
v 2.5 1 2.5
v 2.5 1 1.5
v 2.5 1 -1.5
v 2.5 1 -2.5
v 2.5 2 1.5
v 2.5 3 -1.5
v 2.5 4 1.5
v 2.5 4 -1.5
v 2.5 4 -2.5
v 2.5 5 2.5
v 2.5 5 1.5
v 2.5 5 -1.5
v 2.5 5 -2.5
v 2.5 7 1.5
v 2.5 7 -1.5
v 2.5 9 1.5
v 2.5 9 -1.5
v 2.5 10 1.5
v 2.5 10 -1.5
v 3.5 1 1.5
v 3.5 1 -1.5
v 3.5 2 1.5
v 3.5 2 0.5
v 3.5 3 -0.5
v 3.5 3 -1.5
v 3.5 4 1.5
v 3.5 4 0.5
v 3.5 4 -0.5
v 3.5 4 -1.5
v 3.5 5 1.5
v 3.5 5 -1.5
v -1.5 1 3.5
v -1.5 5 3.5
v -0.5 4 3.5
v -0.5 5 3.5
v 0.5 4 3.5
v 0.5 5 3.5
v 1.5 1 3.5
v 1.5 5 3.5
v -2.5 1 2.5
v -2.5 5 2.5
v -1.5 0 2.5
v -1.5 1 2.5
v -1.5 5 2.5
v -1.5 7 2.5
v -1.5 9 2.5
v -1.5 10 2.5
v -0.5 0 2.5
v -0.5 1 2.5
v -0.5 5 2.5
v 0.5 0 2.5
v 0.5 1 2.5
v 0.5 5 2.5
v 1.5 0 2.5
v 1.5 1 2.5
v 1.5 5 2.5
v 1.5 7 2.5
v 1.5 9 2.5
v 1.5 10 2.5
v 2.5 1 2.5
v 2.5 5 2.5
v -3.5 1 1.5
v -3.5 3 1.5
v -3.5 4 1.5
v -3.5 5 1.5
v -2.5 0 1.5
v -2.5 1 1.5
v -2.5 3 1.5
v -2.5 4 1.5
v -2.5 5 1.5
v -2.5 7 1.5
v -2.5 9 1.5
v -2.5 10 1.5
v -1.5 0 1.5
v -1.5 1 1.5
v -1.5 5 1.5
v -1.5 7 1.5
v -1.5 8 1.5
v -1.5 9 1.5
v -1.5 10 1.5
v -0.5 7 1.5
v -0.5 8 1.5
v -0.5 10 1.5
v -0.5 11 1.5
v 0.5 8 1.5
v 0.5 9 1.5
v 0.5 10 1.5
v 0.5 11 1.5
v 1.5 0 1.5
v 1.5 1 1.5
v 1.5 5 1.5
v 1.5 7 1.5
v 1.5 8 1.5
v 1.5 9 1.5
v 1.5 10 1.5
v 2.5 0 1.5
v 2.5 1 1.5
v 2.5 2 1.5
v 2.5 4 1.5
v 2.5 5 1.5
v 2.5 7 1.5
v 2.5 9 1.5
v 2.5 10 1.5
v 3.5 1 1.5
v 3.5 2 1.5
v 3.5 4 1.5
v 3.5 5 1.5
v -1.5 10 0.5
v -1.5 11 0.5
v -0.5 10 0.5
v -0.5 11 0.5
v 0.5 10 0.5
v 0.5 11 0.5
v 1.5 10 0.5
v 1.5 11 0.5
v -1.5 10 -0.5
v -1.5 11 -0.5
v -0.5 10 -0.5
v -0.5 11 -0.5
v 0.5 10 -0.5
v 0.5 11 -0.5
v 1.5 10 -0.5
v 1.5 11 -0.5
v -3.5 1 -1.5
v -3.5 5 -1.5
v -2.5 0 -1.5
v -2.5 1 -1.5
v -2.5 4 -1.5
v -2.5 5 -1.5
v -2.5 7 -1.5
v -2.5 9 -1.5
v -2.5 10 -1.5
v -1.5 0 -1.5
v -1.5 1 -1.5
v -1.5 5 -1.5
v -1.5 7 -1.5
v -1.5 8 -1.5
v -1.5 9 -1.5
v -1.5 10 -1.5
v -0.5 8 -1.5
v -0.5 9 -1.5
v -0.5 10 -1.5
v -0.5 11 -1.5
v 0.5 7 -1.5
v 0.5 9 -1.5
v 0.5 10 -1.5
v 0.5 11 -1.5
v 1.5 0 -1.5
v 1.5 1 -1.5
v 1.5 5 -1.5
v 1.5 6 -1.5
v 1.5 7 -1.5
v 1.5 9 -1.5
v 1.5 10 -1.5
v 2.5 0 -1.5
v 2.5 1 -1.5
v 2.5 3 -1.5
v 2.5 4 -1.5
v 2.5 5 -1.5
v 2.5 7 -1.5
v 2.5 9 -1.5
v 2.5 10 -1.5
v 3.5 1 -1.5
v 3.5 3 -1.5
v 3.5 4 -1.5
v 3.5 5 -1.5
v -2.5 1 -2.5
v -2.5 4 -2.5
v -2.5 5 -2.5
v -1.5 0 -2.5
v -1.5 1 -2.5
v -1.5 4 -2.5
v -1.5 5 -2.5
v -1.5 7 -2.5
v -1.5 9 -2.5
v -1.5 10 -2.5
v 0.5 5 -2.5
v 0.5 6 -2.5
v 0.5 7 -2.5
v 1.5 0 -2.5
v 1.5 1 -2.5
v 1.5 4 -2.5
v 1.5 5 -2.5
v 1.5 6 -2.5
v 1.5 7 -2.5
v 1.5 9 -2.5
v 1.5 10 -2.5
v 2.5 1 -2.5
v 2.5 4 -2.5
v 2.5 5 -2.5
v -1.5 1 -3.5
v -1.5 4 -3.5
v -1.5 5 -3.5
v -0.5 3 -3.5
v -0.5 4 -3.5
v 0.5 3 -3.5
v 0.5 5 -3.5
v 1.5 1 -3.5
v 1.5 5 -3.5
v -1.5 0 2.5
v -0.5 0 2.5
v 0.5 0 2.5
v 1.5 0 2.5
v -2.5 0 1.5
v -1.5 0 1.5
v -0.5 0 1.5
v 0.5 0 1.5
v 1.5 0 1.5
v 2.5 0 1.5
v -1.5 0 0.5
v -0.5 0 0.5
v -1.5 0 -0.5
v -0.5 0 -0.5
v -2.5 0 -1.5
v -1.5 0 -1.5
v 1.5 0 -1.5
v 2.5 0 -1.5
v -1.5 0 -2.5
v 1.5 0 -2.5
v -1.5 1 3.5
v 1.5 1 3.5
v -2.5 1 2.5
v -1.5 1 2.5
v -0.5 1 2.5
v 0.5 1 2.5
v 1.5 1 2.5
v 2.5 1 2.5
v -3.5 1 1.5
v -2.5 1 1.5
v -1.5 1 1.5
v 1.5 1 1.5
v 2.5 1 1.5
v 3.5 1 1.5
v -3.5 1 -1.5
v -2.5 1 -1.5
v -1.5 1 -1.5
v 1.5 1 -1.5
v 2.5 1 -1.5
v 3.5 1 -1.5
v -2.5 1 -2.5
v -1.5 1 -2.5
v 1.5 1 -2.5
v 2.5 1 -2.5
v -1.5 1 -3.5
v 1.5 1 -3.5
v -1.5 9 2.5
v 1.5 9 2.5
v -2.5 9 1.5
v -1.5 9 1.5
v 0.5 9 1.5
v 1.5 9 1.5
v 2.5 9 1.5
v -1.5 9 0.5
v 1.5 9 0.5
v -1.5 9 -0.5
v -2.5 9 -1.5
v -1.5 9 -1.5
v -0.5 9 -1.5
v 0.5 9 -1.5
v 1.5 9 -1.5
v 2.5 9 -1.5
v -1.5 9 -2.5
v 1.5 9 -2.5
v -1.5 5 3.5
v -0.5 5 3.5
v 0.5 5 3.5
v 1.5 5 3.5
v -2.5 5 2.5
v -1.5 5 2.5
v -0.5 5 2.5
v 0.5 5 2.5
v 1.5 5 2.5
v 2.5 5 2.5
v -3.5 5 1.5
v -2.5 5 1.5
v -1.5 5 1.5
v 1.5 5 1.5
v 2.5 5 1.5
v 3.5 5 1.5
v -3.5 5 0.5
v -2.5 5 0.5
v -3.5 5 -0.5
v -2.5 5 -0.5
v -3.5 5 -1.5
v -2.5 5 -1.5
v -1.5 5 -1.5
v 1.5 5 -1.5
v 2.5 5 -1.5
v 3.5 5 -1.5
v -2.5 5 -2.5
v -1.5 5 -2.5
v 0.5 5 -2.5
v 1.5 5 -2.5
v 2.5 5 -2.5
v -1.5 5 -3.5
v 0.5 5 -3.5
v 1.5 5 -3.5
v -1.5 7 2.5
v 1.5 7 2.5
v -2.5 7 1.5
v -1.5 7 1.5
v -0.5 7 1.5
v 1.5 7 1.5
v 2.5 7 1.5
v -1.5 7 0.5
v 1.5 7 0.5
v -1.5 7 -0.5
v 1.5 7 -0.5
v -2.5 7 -1.5
v -1.5 7 -1.5
v 0.5 7 -1.5
v 1.5 7 -1.5
v 2.5 7 -1.5
v -1.5 7 -2.5
v 0.5 7 -2.5
v 1.5 7 -2.5
v -1.5 10 2.5
v 1.5 10 2.5
v -2.5 10 1.5
v -1.5 10 1.5
v -0.5 10 1.5
v 0.5 10 1.5
v 1.5 10 1.5
v 2.5 10 1.5
v -1.5 10 0.5
v -0.5 10 0.5
v 0.5 10 0.5
v 1.5 10 0.5
v -1.5 10 -0.5
v -0.5 10 -0.5
v 0.5 10 -0.5
v 1.5 10 -0.5
v -2.5 10 -1.5
v -1.5 10 -1.5
v -0.5 10 -1.5
v 0.5 10 -1.5
v 1.5 10 -1.5
v 2.5 10 -1.5
v -1.5 10 -2.5
v 1.5 10 -2.5
v -0.5 11 1.5
v 0.5 11 1.5
v -1.5 11 0.5
v -0.5 11 0.5
v 0.5 11 0.5
v 1.5 11 0.5
v -1.5 11 -0.5
v -0.5 11 -0.5
v 0.5 11 -0.5
v 1.5 11 -0.5
v -0.5 11 -1.5
v 0.5 11 -1.5

# faces
f 3/1/1 2/1/1 1/1/1
f 4/1/1 2/1/1 3/1/1
f 5/5/1 4/5/1 3/5/1
f 6/1/1 2/1/1 4/1/1
f 6/5/1 4/5/1 5/5/1
f 7/1/1 2/1/1 6/1/1
f 8/1/1 6/1/1 5/1/1
f 9/4/1 7/4/1 6/4/1
f 9/1/1 6/1/1 8/1/1
f 10/1/1 2/1/1 7/1/1
f 10/4/1 7/4/1 9/4/1
f 11/1/1 2/1/1 10/1/1
f 15/1/1 13/1/1 12/1/1
f 16/1/1 13/1/1 15/1/1
f 18/1/1 15/1/1 14/1/1
f 19/1/1 18/1/1 14/1/1
f 20/1/1 17/1/1 16/1/1
f 21/1/1 17/1/1 20/1/1
f 22/1/1 19/1/1 14/1/1
f 23/1/1 19/1/1 22/1/1
f 26/5/1 21/5/1 20/5/1
f 27/5/1 21/5/1 26/5/1
f 28/5/1 25/5/1 24/5/1
f 28/1/1 24/1/1 23/1/1
f 29/1/1 26/1/1 25/1/1
f 29/5/1 25/5/1 28/5/1
f 30/1/1 28/1/1 23/1/1
f 30/1/1 29/1/1 28/1/1
f 31/1/1 26/1/1 29/1/1
f 31/1/1 29/1/1 30/1/1
f 34/6/1 33/6/1 32/6/1
f 35/6/1 33/6/1 34/6/1
f 41/1/1 37/1/1 36/1/1
f 42/1/1 37/1/1 41/1/1
f 43/1/1 39/1/1 38/1/1
f 44/1/1 39/1/1 43/1/1
f 46/4/1 45/4/1 44/4/1
f 47/4/1 45/4/1 46/4/1
f 48/1/1 41/1/1 40/1/1
f 49/1/1 41/1/1 48/1/1
f 52/5/1 47/5/1 46/5/1
f 53/5/1 47/5/1 52/5/1
f 54/1/1 50/1/1 49/1/1
f 55/1/1 50/1/1 54/1/1
f 58/1/1 52/1/1 51/1/1
f 59/1/1 52/1/1 58/1/1
f 60/4/1 56/4/1 55/4/1
f 61/5/1 57/5/1 56/5/1
f 61/4/1 56/4/1 60/4/1
f 62/4/1 58/4/1 57/4/1
f 62/5/1 57/5/1 61/5/1
f 63/4/1 58/4/1 62/4/1
f 65/5/1 61/5/1 60/5/1
f 66/4/1 62/4/1 61/4/1
f 66/5/1 61/5/1 65/5/1
f 67/5/1 63/5/1 62/5/1
f 67/4/1 62/4/1 66/4/1
f 68/5/1 63/5/1 67/5/1
f 70/6/1 65/6/1 64/6/1
f 71/6/1 65/6/1 70/6/1
f 74/6/1 69/6/1 68/6/1
f 75/6/1 69/6/1 74/6/1
f 76/3/1 73/3/1 72/3/1
f 77/3/1 73/3/1 76/3/1
f 82/3/1 79/3/1 78/3/1
f 83/3/1 79/3/1 82/3/1
f 84/3/1 81/3/1 80/3/1
f 85/3/1 81/3/1 84/3/1
f 86/3/2 87/3/2 90/3/2
f 90/3/2 87/3/2 91/3/2
f 88/3/2 89/3/2 92/3/2
f 92/3/2 89/3/2 93/3/2
f 94/1/2 95/1/2 99/1/2
f 99/1/2 95/1/2 100/1/2
f 96/1/2 97/1/2 101/1/2
f 101/1/2 97/1/2 102/1/2
f 102/4/2 103/4/2 104/4/2
f 98/1/2 99/1/2 105/1/2
f 105/1/2 99/1/2 106/1/2
f 104/4/2 103/4/2 109/4/2
f 109/4/2 103/4/2 110/4/2
f 108/4/2 109/4/2 111/4/2
f 111/4/2 109/4/2 112/4/2
f 106/1/2 107/1/2 113/1/2
f 113/1/2 107/1/2 114/1/2
f 111/5/2 112/5/2 117/5/2
f 117/5/2 112/5/2 118/5/2
f 114/5/2 115/5/2 119/5/2
f 115/4/2 116/4/2 120/4/2
f 119/5/2 115/5/2 120/5/2
f 116/5/2 117/5/2 121/5/2
f 120/4/2 116/4/2 121/4/2
f 119/4/2 120/4/2 123/4/2
f 120/5/2 121/5/2 124/5/2
f 123/4/2 120/4/2 124/4/2
f 121/5/2 117/5/2 125/5/2
f 124/5/2 121/5/2 125/5/2
f 122/6/2 123/6/2 127/6/2
f 127/6/2 123/6/2 128/6/2
f 125/6/2 126/6/2 131/6/2
f 131/6/2 126/6/2 132/6/2
f 129/3/2 130/3/2 133/3/2
f 133/3/2 130/3/2 134/3/2
f 135/1/2 136/1/2 138/1/2
f 138/1/2 136/1/2 139/1/2
f 137/1/2 138/1/2 141/1/2
f 139/1/2 140/1/2 142/1/2
f 137/1/2 141/1/2 143/1/2
f 142/1/2 140/1/2 144/1/2
f 144/1/2 140/1/2 145/1/2
f 137/1/2 143/1/2 146/1/2
f 146/1/2 143/1/2 147/1/2
f 144/5/2 145/5/2 148/5/2
f 148/5/2 145/5/2 149/5/2
f 147/1/2 148/1/2 150/1/2
f 150/1/2 148/1/2 151/1/2
f 152/6/2 153/6/2 154/6/2
f 154/6/2 153/6/2 155/6/2
f 156/4/2 157/4/2 158/4/2
f 158/4/2 157/4/2 159/4/2
f 159/4/2 157/4/2 160/4/2
f 160/4/2 157/4/2 161/4/2
f 158/5/2 159/5/2 162/5/2
f 159/4/2 160/4/2 163/4/2
f 162/5/2 159/5/2 163/5/2
f 160/5/2 161/5/2 164/5/2
f 163/4/2 160/4/2 164/4/2
f 164/5/2 161/5/2 165/5/2
f 162/4/2 163/4/2 166/4/2
f 163/4/2 164/4/2 166/4/2
f 164/4/2 165/4/2 166/4/2
f 166/4/2 165/4/2 167/4/2
f 170/1/3 169/1/3 168/1/3
f 171/1/3 169/1/3 170/1/3
f 172/1/3 170/1/3 168/1/3
f 172/4/3 171/4/3 170/4/3
f 173/4/3 171/4/3 172/4/3
f 174/1/3 172/1/3 168/1/3
f 174/1/3 173/1/3 172/1/3
f 175/1/3 173/1/3 174/1/3
f 179/1/3 177/1/3 176/1/3
f 180/1/3 177/1/3 179/1/3
f 184/1/3 179/1/3 178/1/3
f 185/1/3 179/1/3 184/1/3
f 186/1/3 181/1/3 180/1/3
f 187/5/3 185/5/3 184/5/3
f 188/5/3 185/5/3 187/5/3
f 189/1/3 181/1/3 186/1/3
f 190/1/3 188/1/3 187/1/3
f 191/1/3 188/1/3 190/1/3
f 192/1/3 181/1/3 189/1/3
f 193/1/3 181/1/3 192/1/3
f 194/6/3 183/6/3 182/6/3
f 195/6/3 183/6/3 194/6/3
f 196/1/3 192/1/3 191/1/3
f 197/1/3 192/1/3 196/1/3
f 203/1/3 199/1/3 198/1/3
f 204/5/3 200/5/3 199/5/3
f 204/1/3 199/1/3 203/1/3
f 205/1/3 201/1/3 200/1/3
f 205/5/3 200/5/3 204/5/3
f 206/1/3 201/1/3 205/1/3
f 210/1/3 203/1/3 202/1/3
f 211/1/3 203/1/3 210/1/3
f 212/1/3 207/1/3 206/1/3
f 213/1/3 207/1/3 212/1/3
f 215/6/3 209/6/3 208/6/3
f 216/6/3 209/6/3 215/6/3
f 217/4/3 214/4/3 213/4/3
f 218/5/3 215/5/3 214/5/3
f 218/4/3 214/4/3 217/4/3
f 221/5/3 215/5/3 218/5/3
f 221/5/3 218/5/3 217/5/3
f 222/5/3 215/5/3 221/5/3
f 223/3/3 220/3/3 219/3/3
f 224/3/3 220/3/3 223/3/3
f 228/5/3 221/5/3 217/5/3
f 229/4/3 222/4/3 221/4/3
f 229/5/3 221/5/3 228/5/3
f 230/4/3 222/4/3 229/4/3
f 232/1/3 226/1/3 225/1/3
f 233/1/3 226/1/3 232/1/3
f 236/1/3 228/1/3 227/1/3
f 237/1/3 228/1/3 236/1/3
f 238/6/3 231/6/3 230/6/3
f 239/6/3 231/6/3 238/6/3
f 240/4/3 234/4/3 233/4/3
f 241/5/3 235/5/3 234/5/3
f 241/4/3 234/4/3 240/4/3
f 242/4/3 236/4/3 235/4/3
f 242/5/3 235/5/3 241/5/3
f 243/4/3 236/4/3 242/4/3
f 246/3/3 245/3/3 244/3/3
f 247/3/3 245/3/3 246/3/3
f 250/3/3 249/3/3 248/3/3
f 251/3/3 249/3/3 250/3/3
f 252/3/4 253/3/4 254/3/4
f 254/3/4 253/3/4 255/3/4
f 256/3/4 257/3/4 258/3/4
f 258/3/4 257/3/4 259/3/4
f 260/1/4 261/1/4 263/1/4
f 263/1/4 261/1/4 264/1/4
f 264/1/4 261/1/4 265/1/4
f 262/1/4 263/1/4 269/1/4
f 269/1/4 263/1/4 270/1/4
f 265/1/4 266/1/4 271/1/4
f 271/1/4 266/1/4 272/1/4
f 267/6/4 268/6/4 274/6/4
f 274/6/4 268/6/4 275/6/4
f 272/4/4 273/4/4 276/4/4
f 273/5/4 274/5/4 276/5/4
f 276/5/4 274/5/4 277/5/4
f 276/4/4 277/4/4 280/4/4
f 272/4/4 276/4/4 280/4/4
f 280/4/4 277/4/4 281/4/4
f 278/3/4 279/3/4 282/3/4
f 282/3/4 279/3/4 283/3/4
f 280/5/4 281/5/4 288/5/4
f 288/5/4 281/5/4 289/5/4
f 284/1/4 285/1/4 291/1/4
f 291/1/4 285/1/4 292/1/4
f 286/1/4 287/1/4 295/1/4
f 287/1/4 288/1/4 295/1/4
f 295/1/4 288/1/4 296/1/4
f 289/6/4 290/6/4 297/6/4
f 297/6/4 290/6/4 298/6/4
f 292/4/4 293/4/4 299/4/4
f 293/5/4 294/5/4 300/5/4
f 299/4/4 293/4/4 300/4/4
f 294/4/4 295/4/4 301/4/4
f 300/5/4 294/5/4 301/5/4
f 301/4/4 295/4/4 302/4/4
f 303/1/4 304/1/4 307/1/4
f 304/5/4 305/5/4 308/5/4
f 307/1/4 304/1/4 308/1/4
f 308/5/4 305/5/4 309/5/4
f 309/1/4 310/1/4 313/1/4
f 313/1/4 310/1/4 314/1/4
f 314/1/4 310/1/4 315/1/4
f 306/1/4 307/1/4 316/1/4
f 316/1/4 307/1/4 317/1/4
f 313/4/4 314/4/4 319/4/4
f 314/5/4 315/5/4 320/5/4
f 319/4/4 314/4/4 320/4/4
f 320/5/4 315/5/4 321/5/4
f 311/6/4 312/6/4 322/6/4
f 322/6/4 312/6/4 323/6/4
f 317/1/4 318/1/4 324/1/4
f 318/5/4 319/5/4 325/5/4
f 324/1/4 318/1/4 325/1/4
f 325/5/4 319/5/4 326/5/4
f 327/4/4 328/4/4 330/4/4
f 328/5/4 329/5/4 331/5/4
f 330/4/4 328/4/4 331/4/4
f 327/4/4 330/4/4 332/4/4
f 330/5/4 331/5/4 332/5/4
f 331/5/4 329/5/4 333/5/4
f 332/5/4 331/5/4 333/5/4
f 327/4/4 332/4/4 334/4/4
f 332/4/4 333/4/4 334/4/4
f 334/4/4 333/4/4 335/4/4
f 341/1/5 337/1/5 336/1/5
f 342/5/5 338/5/5 337/5/5
f 342/1/5 337/1/5 341/1/5
f 343/1/5 339/1/5 338/1/5
f 343/5/5 338/5/5 342/5/5
f 344/1/5 339/1/5 343/1/5
f 346/1/5 342/1/5 341/1/5
f 346/1/5 345/1/5 344/1/5
f 346/1/5 344/1/5 343/1/5
f 346/1/5 343/1/5 342/1/5
f 346/1/5 341/1/5 340/1/5
f 347/1/5 345/1/5 346/1/5
f 348/1/5 346/1/5 340/1/5
f 348/5/5 347/5/5 346/5/5
f 349/1/5 345/1/5 347/1/5
f 349/5/5 347/5/5 348/5/5
f 350/1/5 348/1/5 340/1/5
f 350/1/5 349/1/5 348/1/5
f 351/1/5 349/1/5 350/1/5
f 352/1/5 345/1/5 349/1/5
f 352/1/5 349/1/5 351/1/5
f 353/1/5 345/1/5 352/1/5
f 354/1/5 352/1/5 351/1/5
f 355/1/5 352/1/5 354/1/5
f 359/1/5 357/1/5 356/1/5
f 360/1/5 357/1/5 359/1/5
f 361/1/5 357/1/5 360/1/5
f 362/1/5 357/1/5 361/1/5
f 365/1/5 359/1/5 358/1/5
f 366/1/5 359/1/5 365/1/5
f 367/1/5 363/1/5 362/1/5
f 368/1/5 363/1/5 367/1/5
f 370/1/5 365/1/5 364/1/5
f 371/1/5 365/1/5 370/1/5
f 374/4/5 369/4/5 368/4/5
f 375/4/5 369/4/5 374/4/5
f 376/1/5 372/1/5 371/1/5
f 377/1/5 372/1/5 376/1/5
f 378/1/5 374/1/5 373/1/5
f 379/1/5 374/1/5 378/1/5
f 380/4/5 378/4/5 377/4/5
f 381/4/5 378/4/5 380/4/5
f 385/6/5 383/6/5 382/6/5
f 386/6/5 383/6/5 385/6/5
f 387/6/5 383/6/5 386/6/5
f 389/6/5 385/6/5 384/6/5
f 390/6/5 388/6/5 387/6/5
f 391/6/5 389/6/5 384/6/5
f 392/6/5 391/6/5 384/6/5
f 393/6/5 391/6/5 392/6/5
f 396/6/5 388/6/5 390/6/5
f 397/6/5 388/6/5 396/6/5
f 398/6/5 395/6/5 394/6/5
f 398/6/5 396/6/5 395/6/5
f 398/6/5 394/6/5 393/6/5
f 399/6/5 396/6/5 398/6/5
f 400/1/6 401/1/6 405/1/6
f 401/4/6 402/4/6 406/4/6
f 405/1/6 401/1/6 406/1/6
f 402/1/6 403/1/6 407/1/6
f 406/4/6 402/4/6 407/4/6
f 407/1/6 403/1/6 408/1/6
f 404/1/6 405/1/6 411/1/6
f 411/1/6 405/1/6 412/1/6
f 408/1/6 409/1/6 413/1/6
f 413/1/6 409/1/6 414/1/6
f 410/1/6 411/1/6 416/1/6
f 416/1/6 411/1/6 417/1/6
f 416/4/6 417/4/6 418/4/6
f 418/4/6 417/4/6 419/4/6
f 418/1/6 419/1/6 420/1/6
f 420/1/6 419/1/6 421/1/6
f 414/4/6 415/4/6 424/4/6
f 424/4/6 415/4/6 425/4/6
f 421/5/6 422/5/6 426/5/6
f 426/5/6 422/5/6 427/5/6
f 423/5/6 424/5/6 429/5/6
f 429/5/6 424/5/6 430/5/6
f 427/5/6 428/5/6 431/5/6
f 428/4/6 429/4/6 432/4/6
f 431/5/6 428/5/6 432/5/6
f 432/4/6 429/4/6 433/4/6
f 434/1/6 435/1/6 437/1/6
f 437/1/6 435/1/6 438/1/6
f 438/1/6 435/1/6 439/1/6
f 436/1/6 437/1/6 441/1/6
f 439/1/6 440/1/6 442/1/6
f 436/1/6 441/1/6 443/1/6
f 442/1/6 440/1/6 444/1/6
f 436/1/6 443/1/6 445/1/6
f 445/1/6 443/1/6 446/1/6
f 444/1/6 440/1/6 448/1/6
f 448/1/6 440/1/6 449/1/6
f 446/1/6 447/1/6 450/1/6
f 447/5/6 448/5/6 451/5/6
f 450/1/6 447/1/6 451/1/6
f 451/5/6 448/5/6 452/5/6
f 453/6/6 454/6/6 456/6/6
f 456/6/6 454/6/6 457/6/6
f 457/6/6 454/6/6 458/6/6
f 458/6/6 454/6/6 459/6/6
f 455/6/6 456/6/6 461/6/6
f 456/3/6 457/3/6 461/3/6
f 461/3/6 457/3/6 462/3/6
f 458/3/6 459/3/6 463/3/6
f 459/6/6 460/6/6 464/6/6
f 463/3/6 459/3/6 464/3/6
f 455/6/6 461/6/6 465/6/6
f 464/6/6 460/6/6 468/6/6
f 455/6/6 465/6/6 469/6/6
f 465/3/6 466/3/6 470/3/6
f 469/6/6 465/6/6 470/6/6
f 470/3/6 466/3/6 471/3/6
f 467/3/6 468/3/6 472/3/6
f 468/6/6 460/6/6 473/6/6
f 472/3/6 468/3/6 473/3/6
f 473/6/6 460/6/6 474/6/6
f 470/6/6 471/6/6 475/6/6
f 471/6/6 472/6/6 475/6/6
f 472/6/6 473/6/6 475/6/6
f 475/6/6 473/6/6 476/6/6
f 477/3/6 478/3/6 480/3/6
f 480/3/6 478/3/6 481/3/6
f 479/3/6 480/3/6 483/3/6
f 481/3/6 482/3/6 483/3/6
f 480/3/6 481/3/6 483/3/6
f 483/3/6 482/3/6 484/3/6
f 484/3/6 482/3/6 485/3/6
f 485/3/6 482/3/6 486/3/6
f 484/3/6 485/3/6 487/3/6
f 487/3/6 485/3/6 488/3/6
