# MagicaVoxel @ Ephtracy

# group
o 

# material
mtllib hammer.mtl
usemtl palette

# normals
vn -1 0 0
vn 1 0 0
vn 0 0 1
vn 0 0 -1
vn 0 -1 0
vn 0 1 0

# texcoords
vt 0.306641 0.5
vt 0.537109 0.5
vt 0.861328 0.5
vt 0.958984 0.5
vt 0.982422 0.5

# verts
v 1.1 4.2 -1.6
v 1.1 4.2 -2.3
v 1.1 4.3 -1.5
v 1.1 4.3 -1.6
v 1.1 4.3 -2.3
v 1.1 4.3 -2.4
v 1.1 5 -1.5
v 1.1 5 -1.6
v 1.1 5 -2.3
v 1.1 5 -2.4
v 1.1 5.1 -1.6
v 1.1 5.1 -2.3
v 1.2 4.2 -1.5
v 1.2 4.2 -1.6
v 1.2 4.2 -2.3
v 1.2 4.2 -2.4
v 1.2 4.3 -1.5
v 1.2 4.3 -1.6
v 1.2 4.3 -2.3
v 1.2 4.3 -2.4
v 1.2 5 -1.5
v 1.2 5 -1.6
v 1.2 5 -2.3
v 1.2 5 -2.4
v 1.2 5.1 -1.5
v 1.2 5.1 -1.6
v 1.2 5.1 -2.3
v 1.2 5.1 -2.4
v 1.8 2 -1.8
v 1.8 2 -2.1
v 1.8 2.2 -1.8
v 1.8 2.2 -2.1
v 1.9 2 -1.7
v 1.9 2 -1.8
v 1.9 2 -2.1
v 1.9 2 -2.2
v 1.9 2.2 -1.7
v 1.9 2.2 -1.8
v 1.9 2.2 -1.9
v 1.9 2.2 -2
v 1.9 2.2 -2.1
v 1.9 2.2 -2.2
v 1.9 4.2 -1.9
v 1.9 4.2 -2
v 2 2.2 -1.8
v 2 2.2 -1.9
v 2 2.2 -2
v 2 2.2 -2.1
v 2 4.2 -1.8
v 2 4.2 -1.9
v 2 4.2 -2
v 2 4.2 -2.1
v 2.1 2.2 -1.8
v 2.1 2.2 -1.9
v 2.1 2.2 -2
v 2.1 2.2 -2.1
v 2.1 4.2 -1.8
v 2.1 4.2 -1.9
v 2.1 4.2 -2
v 2.1 4.2 -2.1
v 2.2 2 -1.7
v 2.2 2 -1.8
v 2.2 2 -2.1
v 2.2 2 -2.2
v 2.2 2.2 -1.7
v 2.2 2.2 -1.8
v 2.2 2.2 -1.9
v 2.2 2.2 -2
v 2.2 2.2 -2.1
v 2.2 2.2 -2.2
v 2.2 4.2 -1.9
v 2.2 4.2 -2
v 2.3 2 -1.8
v 2.3 2 -2.1
v 2.3 2.2 -1.8
v 2.3 2.2 -2.1
v 2.8 4.2 -1.5
v 2.8 4.2 -1.6
v 2.8 4.2 -2.3
v 2.8 4.2 -2.4
v 2.8 4.3 -1.5
v 2.8 4.3 -1.6
v 2.8 4.3 -2.3
v 2.8 4.3 -2.4
v 2.8 5 -1.5
v 2.8 5 -1.6
v 2.8 5 -2.3
v 2.8 5 -2.4
v 2.8 5.1 -1.5
v 2.8 5.1 -1.6
v 2.8 5.1 -2.3
v 2.8 5.1 -2.4
v 2.9 4.2 -1.6
v 2.9 4.2 -2.3
v 2.9 4.3 -1.5
v 2.9 4.3 -1.6
v 2.9 4.3 -2.3
v 2.9 4.3 -2.4
v 2.9 5 -1.5
v 2.9 5 -1.6
v 2.9 5 -2.3
v 2.9 5 -2.4
v 2.9 5.1 -1.6
v 2.9 5.1 -2.3
v 1.1 4.3 -1.5
v 1.1 5 -1.5
v 1.2 4.2 -1.5
v 1.2 4.3 -1.5
v 1.2 5 -1.5
v 1.2 5.1 -1.5
v 2.8 4.2 -1.5
v 2.8 4.3 -1.5
v 2.8 5 -1.5
v 2.8 5.1 -1.5
v 2.9 4.3 -1.5
v 2.9 5 -1.5
v 1.1 4.2 -1.6
v 1.1 4.3 -1.6
v 1.1 5 -1.6
v 1.1 5.1 -1.6
v 1.2 4.2 -1.6
v 1.2 4.3 -1.6
v 1.2 5 -1.6
v 1.2 5.1 -1.6
v 2.8 4.2 -1.6
v 2.8 4.3 -1.6
v 2.8 5 -1.6
v 2.8 5.1 -1.6
v 2.9 4.2 -1.6
v 2.9 4.3 -1.6
v 2.9 5 -1.6
v 2.9 5.1 -1.6
v 1.9 2 -1.7
v 1.9 2.2 -1.7
v 2.2 2 -1.7
v 2.2 2.2 -1.7
v 1.8 2 -1.8
v 1.8 2.2 -1.8
v 1.9 2 -1.8
v 1.9 2.2 -1.8
v 2 2.2 -1.8
v 2 4.2 -1.8
v 2.1 2.2 -1.8
v 2.1 4.2 -1.8
v 2.2 2 -1.8
v 2.2 2.2 -1.8
v 2.3 2 -1.8
v 2.3 2.2 -1.8
v 1.9 2.2 -1.9
v 1.9 4.2 -1.9
v 2 2.2 -1.9
v 2 4.2 -1.9
v 2.1 2.2 -1.9
v 2.1 4.2 -1.9
v 2.2 2.2 -1.9
v 2.2 4.2 -1.9
v 1.9 2.2 -2
v 1.9 4.2 -2
v 2 2.2 -2
v 2 4.2 -2
v 2.1 2.2 -2
v 2.1 4.2 -2
v 2.2 2.2 -2
v 2.2 4.2 -2
v 1.8 2 -2.1
v 1.8 2.2 -2.1
v 1.9 2 -2.1
v 1.9 2.2 -2.1
v 2 2.2 -2.1
v 2 4.2 -2.1
v 2.1 2.2 -2.1
v 2.1 4.2 -2.1
v 2.2 2 -2.1
v 2.2 2.2 -2.1
v 2.3 2 -2.1
v 2.3 2.2 -2.1
v 1.9 2 -2.2
v 1.9 2.2 -2.2
v 2.2 2 -2.2
v 2.2 2.2 -2.2
v 1.1 4.2 -2.3
v 1.1 4.3 -2.3
v 1.1 5 -2.3
v 1.1 5.1 -2.3
v 1.2 4.2 -2.3
v 1.2 4.3 -2.3
v 1.2 5 -2.3
v 1.2 5.1 -2.3
v 2.8 4.2 -2.3
v 2.8 4.3 -2.3
v 2.8 5 -2.3
v 2.8 5.1 -2.3
v 2.9 4.2 -2.3
v 2.9 4.3 -2.3
v 2.9 5 -2.3
v 2.9 5.1 -2.3
v 1.1 4.3 -2.4
v 1.1 5 -2.4
v 1.2 4.2 -2.4
v 1.2 4.3 -2.4
v 1.2 5 -2.4
v 1.2 5.1 -2.4
v 2.8 4.2 -2.4
v 2.8 4.3 -2.4
v 2.8 5 -2.4
v 2.8 5.1 -2.4
v 2.9 4.3 -2.4
v 2.9 5 -2.4
v 1.9 2 -1.7
v 2.2 2 -1.7
v 1.8 2 -1.8
v 1.9 2 -1.8
v 2.2 2 -1.8
v 2.3 2 -1.8
v 1.8 2 -2.1
v 1.9 2 -2.1
v 2.2 2 -2.1
v 2.3 2 -2.1
v 1.9 2 -2.2
v 2.2 2 -2.2
v 1.2 4.2 -1.5
v 2.8 4.2 -1.5
v 1.1 4.2 -1.6
v 1.2 4.2 -1.6
v 2.8 4.2 -1.6
v 2.9 4.2 -1.6
v 2 4.2 -1.8
v 2.1 4.2 -1.8
v 1.9 4.2 -1.9
v 2 4.2 -1.9
v 2.1 4.2 -1.9
v 2.2 4.2 -1.9
v 1.9 4.2 -2
v 2 4.2 -2
v 2.1 4.2 -2
v 2.2 4.2 -2
v 2 4.2 -2.1
v 2.1 4.2 -2.1
v 1.1 4.2 -2.3
v 1.2 4.2 -2.3
v 2.8 4.2 -2.3
v 2.9 4.2 -2.3
v 1.2 4.2 -2.4
v 2.8 4.2 -2.4
v 1.1 4.3 -1.5
v 1.2 4.3 -1.5
v 2.8 4.3 -1.5
v 2.9 4.3 -1.5
v 1.1 4.3 -1.6
v 1.2 4.3 -1.6
v 2.8 4.3 -1.6
v 2.9 4.3 -1.6
v 1.1 4.3 -2.3
v 1.2 4.3 -2.3
v 2.8 4.3 -2.3
v 2.9 4.3 -2.3
v 1.1 4.3 -2.4
v 1.2 4.3 -2.4
v 2.8 4.3 -2.4
v 2.9 4.3 -2.4
v 1.9 2.2 -1.7
v 2.2 2.2 -1.7
v 1.8 2.2 -1.8
v 1.9 2.2 -1.8
v 2 2.2 -1.8
v 2.1 2.2 -1.8
v 2.2 2.2 -1.8
v 2.3 2.2 -1.8
v 1.9 2.2 -1.9
v 2 2.2 -1.9
v 2.1 2.2 -1.9
v 2.2 2.2 -1.9
v 1.9 2.2 -2
v 2 2.2 -2
v 2.1 2.2 -2
v 2.2 2.2 -2
v 1.8 2.2 -2.1
v 1.9 2.2 -2.1
v 2 2.2 -2.1
v 2.1 2.2 -2.1
v 2.2 2.2 -2.1
v 2.3 2.2 -2.1
v 1.9 2.2 -2.2
v 2.2 2.2 -2.2
v 1.1 5 -1.5
v 1.2 5 -1.5
v 2.8 5 -1.5
v 2.9 5 -1.5
v 1.1 5 -1.6
v 1.2 5 -1.6
v 2.8 5 -1.6
v 2.9 5 -1.6
v 1.1 5 -2.3
v 1.2 5 -2.3
v 2.8 5 -2.3
v 2.9 5 -2.3
v 1.1 5 -2.4
v 1.2 5 -2.4
v 2.8 5 -2.4
v 2.9 5 -2.4
v 1.2 5.1 -1.5
v 2.8 5.1 -1.5
v 1.1 5.1 -1.6
v 1.2 5.1 -1.6
v 2.8 5.1 -1.6
v 2.9 5.1 -1.6
v 1.1 5.1 -2.3
v 1.2 5.1 -2.3
v 2.8 5.1 -2.3
v 2.9 5.1 -2.3
v 1.2 5.1 -2.4
v 2.8 5.1 -2.4

# faces
f 4/4/1 2/4/1 1/4/1
f 5/4/1 2/4/1 4/4/1
f 7/4/1 4/4/1 3/4/1
f 7/4/1 6/4/1 5/4/1
f 7/4/1 5/4/1 4/4/1
f 8/4/1 6/4/1 7/4/1
f 9/4/1 6/4/1 8/4/1
f 10/4/1 6/4/1 9/4/1
f 11/4/1 9/4/1 8/4/1
f 12/4/1 9/4/1 11/4/1
f 17/4/1 14/4/1 13/4/1
f 18/4/1 14/4/1 17/4/1
f 19/4/1 16/4/1 15/4/1
f 20/4/1 16/4/1 19/4/1
f 25/4/1 22/4/1 21/4/1
f 26/4/1 22/4/1 25/4/1
f 27/4/1 24/4/1 23/4/1
f 28/4/1 24/4/1 27/4/1
f 31/2/1 30/2/1 29/2/1
f 32/2/1 30/2/1 31/2/1
f 37/2/1 34/2/1 33/2/1
f 38/2/1 34/2/1 37/2/1
f 41/2/1 36/2/1 35/2/1
f 42/2/1 36/2/1 41/2/1
f 43/2/1 40/2/1 39/2/1
f 44/2/1 40/2/1 43/2/1
f 49/2/1 46/2/1 45/2/1
f 50/2/1 46/2/1 49/2/1
f 51/2/1 48/2/1 47/2/1
f 52/2/1 48/2/1 51/2/1
f 53/2/2 54/2/2 57/2/2
f 57/2/2 54/2/2 58/2/2
f 55/2/2 56/2/2 59/2/2
f 59/2/2 56/2/2 60/2/2
f 61/2/2 62/2/2 65/2/2
f 65/2/2 62/2/2 66/2/2
f 63/2/2 64/2/2 69/2/2
f 69/2/2 64/2/2 70/2/2
f 67/2/2 68/2/2 71/2/2
f 71/2/2 68/2/2 72/2/2
f 73/2/2 74/2/2 75/2/2
f 75/2/2 74/2/2 76/2/2
f 77/4/2 78/4/2 81/4/2
f 81/4/2 78/4/2 82/4/2
f 79/4/2 80/4/2 83/4/2
f 83/4/2 80/4/2 84/4/2
f 85/4/2 86/4/2 89/4/2
f 89/4/2 86/4/2 90/4/2
f 87/4/2 88/4/2 91/4/2
f 91/4/2 88/4/2 92/4/2
f 93/4/2 94/4/2 96/4/2
f 96/4/2 94/4/2 97/4/2
f 95/4/2 96/4/2 99/4/2
f 97/4/2 98/4/2 99/4/2
f 96/4/2 97/4/2 99/4/2
f 99/4/2 98/4/2 100/4/2
f 100/4/2 98/4/2 101/4/2
f 101/4/2 98/4/2 102/4/2
f 100/4/2 101/4/2 103/4/2
f 103/4/2 101/4/2 104/4/2
f 108/4/3 106/4/3 105/4/3
f 109/4/3 106/4/3 108/4/3
f 111/4/3 108/4/3 107/4/3
f 111/4/3 110/4/3 109/4/3
f 111/4/3 109/4/3 108/4/3
f 112/4/3 110/4/3 111/4/3
f 113/4/3 110/4/3 112/4/3
f 114/4/3 110/4/3 113/4/3
f 115/4/3 113/4/3 112/4/3
f 116/4/3 113/4/3 115/4/3
f 121/4/3 118/4/3 117/4/3
f 122/4/3 118/4/3 121/4/3
f 123/4/3 120/4/3 119/4/3
f 124/4/3 120/4/3 123/4/3
f 129/4/3 126/4/3 125/4/3
f 130/4/3 126/4/3 129/4/3
f 131/4/3 128/4/3 127/4/3
f 132/4/3 128/4/3 131/4/3
f 135/2/3 134/2/3 133/2/3
f 136/2/3 134/2/3 135/2/3
f 139/2/3 138/2/3 137/2/3
f 140/2/3 138/2/3 139/2/3
f 143/2/3 142/2/3 141/2/3
f 144/2/3 142/2/3 143/2/3
f 147/2/3 146/2/3 145/2/3
f 148/2/3 146/2/3 147/2/3
f 151/2/3 150/2/3 149/2/3
f 152/2/3 150/2/3 151/2/3
f 155/2/3 154/2/3 153/2/3
f 156/2/3 154/2/3 155/2/3
f 157/2/4 158/2/4 159/2/4
f 159/2/4 158/2/4 160/2/4
f 161/2/4 162/2/4 163/2/4
f 163/2/4 162/2/4 164/2/4
f 165/2/4 166/2/4 167/2/4
f 167/2/4 166/2/4 168/2/4
f 169/2/4 170/2/4 171/2/4
f 171/2/4 170/2/4 172/2/4
f 173/2/4 174/2/4 175/2/4
f 175/2/4 174/2/4 176/2/4
f 177/2/4 178/2/4 179/2/4
f 179/2/4 178/2/4 180/2/4
f 181/4/4 182/4/4 185/4/4
f 185/4/4 182/4/4 186/4/4
f 183/4/4 184/4/4 187/4/4
f 187/4/4 184/4/4 188/4/4
f 189/4/4 190/4/4 193/4/4
f 193/4/4 190/4/4 194/4/4
f 191/4/4 192/4/4 195/4/4
f 195/4/4 192/4/4 196/4/4
f 197/4/4 198/4/4 200/4/4
f 200/4/4 198/4/4 201/4/4
f 199/4/4 200/4/4 203/4/4
f 201/4/4 202/4/4 203/4/4
f 200/4/4 201/4/4 203/4/4
f 203/4/4 202/4/4 204/4/4
f 204/4/4 202/4/4 205/4/4
f 205/4/4 202/4/4 206/4/4
f 204/4/4 205/4/4 207/4/4
f 207/4/4 205/4/4 208/4/4
f 212/2/5 210/2/5 209/2/5
f 213/2/5 210/2/5 212/2/5
f 215/2/5 212/2/5 211/2/5
f 215/2/5 214/2/5 213/2/5
f 215/2/5 213/2/5 212/2/5
f 216/2/5 214/2/5 215/2/5
f 217/2/5 214/2/5 216/2/5
f 218/2/5 214/2/5 217/2/5
f 219/2/5 217/2/5 216/2/5
f 220/2/5 217/2/5 219/2/5
f 224/4/5 222/4/5 221/4/5
f 225/4/5 222/4/5 224/4/5
f 227/4/5 224/4/5 223/4/5
f 227/4/5 226/4/5 225/4/5
f 227/4/5 225/4/5 224/4/5
f 228/4/5 226/4/5 227/4/5
f 229/4/5 227/4/5 223/4/5
f 230/4/5 227/4/5 229/4/5
f 231/4/5 226/4/5 228/4/5
f 232/4/5 226/4/5 231/4/5
f 233/4/5 229/4/5 223/4/5
f 236/4/5 226/4/5 232/4/5
f 237/4/5 234/4/5 233/4/5
f 238/4/5 236/4/5 235/4/5
f 239/4/5 237/4/5 233/4/5
f 239/4/5 238/4/5 237/4/5
f 239/4/5 233/4/5 223/4/5
f 240/4/5 238/4/5 239/4/5
f 241/4/5 236/4/5 238/4/5
f 241/4/5 238/4/5 240/4/5
f 241/4/5 226/4/5 236/4/5
f 242/4/5 226/4/5 241/4/5
f 243/4/5 241/4/5 240/4/5
f 244/4/5 241/4/5 243/4/5
f 249/4/5 246/4/5 245/4/5
f 250/4/5 246/4/5 249/4/5
f 251/4/5 248/4/5 247/4/5
f 252/4/5 248/4/5 251/4/5
f 257/4/5 254/4/5 253/4/5
f 258/4/5 254/4/5 257/4/5
f 259/4/5 256/4/5 255/4/5
f 260/4/5 256/4/5 259/4/5
f 261/2/6 262/2/6 264/2/6
f 264/2/6 262/2/6 265/2/6
f 265/2/6 262/2/6 266/2/6
f 266/2/6 262/2/6 267/2/6
f 263/2/6 264/2/6 269/2/6
f 264/2/6 265/2/6 269/2/6
f 269/2/6 265/2/6 270/2/6
f 267/2/6 268/2/6 271/2/6
f 266/2/6 267/2/6 271/2/6
f 271/2/6 268/2/6 272/2/6
f 263/2/6 269/2/6 273/2/6
f 272/2/6 268/2/6 276/2/6
f 273/2/6 274/2/6 277/2/6
f 263/2/6 273/2/6 277/2/6
f 277/2/6 274/2/6 278/2/6
f 278/2/6 274/2/6 279/2/6
f 275/2/6 276/2/6 280/2/6
f 276/2/6 268/2/6 281/2/6
f 280/2/6 276/2/6 281/2/6
f 281/2/6 268/2/6 282/2/6
f 278/2/6 279/2/6 283/2/6
f 279/2/6 280/2/6 283/2/6
f 280/2/6 281/2/6 283/2/6
f 283/2/6 281/2/6 284/2/6
f 285/4/6 286/4/6 289/4/6
f 289/4/6 286/4/6 290/4/6
f 287/4/6 288/4/6 291/4/6
f 291/4/6 288/4/6 292/4/6
f 293/4/6 294/4/6 297/4/6
f 297/4/6 294/4/6 298/4/6
f 295/4/6 296/4/6 299/4/6
f 299/4/6 296/4/6 300/4/6
f 301/4/6 302/4/6 304/4/6
f 304/4/6 302/4/6 305/4/6
f 303/4/6 304/4/6 307/4/6
f 305/4/6 306/4/6 307/4/6
f 304/4/6 305/4/6 307/4/6
f 307/4/6 306/4/6 308/4/6
f 308/4/6 306/4/6 309/4/6
f 309/4/6 306/4/6 310/4/6
f 308/4/6 309/4/6 311/4/6
f 311/4/6 309/4/6 312/4/6
